# Blender v3.1.2 OBJ File: 'cybertruck.blend'
# www.blender.org
mtllib cybertruck.mtl
o Plane
v 3.868222 -0.366395 0.881757
v 3.868222 -0.366395 -0.622787
v 3.868222 -0.336483 -1.219890
v 3.868222 -0.226267 -1.536004
v 3.868222 -0.174400 -1.536004
v 3.868222 -0.174400 -1.523388
v 3.868222 -0.133747 -1.523388
v 3.642243 0.238323 -1.578617
v 3.642243 0.490769 0.304879
v 3.864003 0.045596 1.531570
v 3.868222 -0.283938 1.486908
v 3.868222 -0.307795 1.464780
v 3.868222 -0.173471 1.500964
v 3.236997 -0.307795 1.464780
v 3.236997 -0.366394 0.881757
v 3.236997 0.490769 0.304879
v 3.236998 0.238323 -1.578617
v 3.236997 -0.366394 -0.622787
v 3.242046 0.031788 1.659892
v 3.236997 -0.336483 -1.219890
v 3.236997 -0.226267 -1.536004
v 3.236997 -0.173471 1.632035
v 3.236997 -0.174400 -1.536004
v 3.236997 -0.283938 1.617979
v 3.236997 -0.174400 -1.523388
v 3.236997 -0.133747 -1.523388
v 3.680006 -0.283938 1.617979
v 3.672717 -0.173471 1.632035
v 3.242046 0.021439 1.656540
v 3.655727 0.021459 1.656707
v 3.678324 -0.235773 1.624108
v 3.863865 0.021466 1.528282
v 3.655727 0.031768 1.660041
v 3.655727 0.050508 1.660535
v 3.236997 0.016554 1.655893
v 3.236997 0.050508 1.660535
v 3.655727 0.016554 1.656215
v 3.868222 0.050508 1.529464
v 3.868222 0.016554 1.525144
v 3.236997 0.031788 1.659868
v 3.236997 0.021438 1.656561
v 3.655727 0.022688 1.647826
v 3.655727 0.032997 1.651160
v 3.242049 0.033017 1.651010
v 3.242049 0.022668 1.647658
v 3.236997 0.033017 1.650986
v 3.236997 0.022667 1.647679
v 3.859429 0.046291 1.524092
v 3.859291 0.022161 1.520804
v 3.850906 0.084243 1.435630
v 3.867072 0.045831 1.529715
v 3.866934 0.021701 1.526427
v 3.862499 0.046526 1.522237
v 3.862361 0.022396 1.518949
v 3.239087 -0.364645 0.881744
v 2.605773 -0.366394 0.881757
v 2.605773 -0.366394 -0.622787
v 2.605773 -0.336482 -1.219890
v 2.605773 -0.226267 -1.536004
v 2.605773 -0.174400 -1.536004
v 2.605773 -0.174400 -1.523388
v 2.605773 -0.133747 -1.523388
v 2.831752 0.238323 -1.578617
v 2.831751 0.490769 0.304879
v 2.609992 0.045596 1.531570
v 2.605773 -0.283938 1.486908
v 2.605773 -0.307795 1.464780
v 2.605773 -0.173471 1.500964
v 3.231948 0.031788 1.659892
v 2.793988 -0.283938 1.617979
v 2.801278 -0.173471 1.632035
v 3.231948 0.021439 1.656540
v 2.818267 0.021459 1.656707
v 2.795671 -0.235773 1.624108
v 2.610130 0.021466 1.528282
v 2.818267 0.031768 1.660041
v 2.818267 0.050508 1.660535
v 2.818267 0.016554 1.656215
v 2.605773 0.050508 1.529464
v 2.605773 0.016554 1.525144
v 2.818267 0.022688 1.647826
v 2.818267 0.032997 1.651160
v 3.231945 0.033017 1.651010
v 3.231945 0.022668 1.647658
v 2.614565 0.046291 1.524092
v 2.614703 0.022161 1.520804
v 2.623089 0.084243 1.435630
v 2.606922 0.045831 1.529715
v 2.607060 0.021701 1.526427
v 2.611495 0.046526 1.522237
v 2.611634 0.022396 1.518949
v 3.234908 -0.364645 0.881744
vt 0.000000 0.000000
vt 0.000000 0.000000
vt 0.000000 0.000000
vt 0.000000 0.000000
vt 0.000000 0.000000
vt 0.000000 0.000000
vt 0.000000 0.000000
vt 0.000000 0.000000
vt 0.000000 0.000000
vt 0.000000 0.000000
vt 0.000000 0.000000
vt 0.000000 0.000000
vt 0.000000 0.000000
vt 0.000000 0.000000
vt 0.000000 0.000000
vt 0.000000 0.000000
vt 0.000000 0.000000
vt 0.000000 0.000000
vt 0.000000 0.000000
vt 0.000000 0.000000
vt 0.000000 0.000000
vt 0.000000 0.000000
vt 0.000000 0.000000
vt 0.000000 0.000000
vt 0.000000 0.000000
vt 0.000000 0.000000
vt 0.000000 0.000000
vt 0.000000 0.000000
vt 0.000000 0.000000
vt 0.000000 0.000000
vt 0.000000 0.000000
vt 0.000000 0.000000
vt 0.000000 0.000000
vt 0.000000 0.000000
vt 0.000000 0.000000
vt 0.000000 0.000000
vt 0.000000 0.000000
vt 0.000000 0.000000
vt 0.000000 0.000000
vt 0.000000 0.000000
vt 0.000000 0.000000
vt 0.000000 0.000000
vt 0.000000 0.000000
vt 0.000000 0.000000
vt 0.000000 0.000000
vt 0.000000 0.000000
vt 0.000000 0.000000
vt 0.000000 0.000000
vt 0.000000 0.000000
vt 0.000000 0.000000
vt 0.000000 0.000000
vt 0.000000 0.000000
vt 0.000000 0.000000
vt 0.000000 0.000000
vt 0.000000 0.000000
vt 0.000000 0.000000
vt 0.000000 0.000000
vt 0.000000 0.000000
vt 0.000000 0.000000
vt 0.000000 0.000000
vt 0.000000 0.000000
vt 0.000000 0.000000
vt 0.000000 0.000000
vt 0.000000 0.000000
vt 0.000000 0.000000
vt 0.000000 0.000000
vt 0.000000 0.000000
vt 0.000000 0.000000
vt 0.000000 0.000000
vt 0.000000 0.000000
vt 0.000000 0.000000
vt 0.000000 0.000000
vt 0.000000 0.000000
vt 0.000000 0.000000
vt 0.000000 0.000000
vt 0.000000 0.000000
vt 0.000000 0.000000
vt 0.000000 0.000000
vt 0.000000 0.000000
vt 0.000000 0.000000
vt 0.000000 0.000000
vt 0.000000 0.000000
vt 0.000000 0.000000
vt 0.000000 0.000000
vt 0.000000 0.000000
vt 0.000000 0.000000
vt 0.000000 0.000000
vt 0.000000 0.000000
vt 0.000000 0.000000
vt 0.000000 0.000000
vn -0.0000 -0.9950 0.1000
vn 0.0000 0.9911 -0.1328
vn -0.0000 -1.0000 -0.0000
vn -0.0000 -0.9443 -0.3292
vn -0.0004 -0.1254 0.9921
vn 0.0000 0.0000 -1.0000
vn 0.0182 -0.9843 0.1757
vn 0.0000 1.0000 0.0000
vn 0.0000 -0.1468 -0.9892
vn -0.0000 -0.9987 -0.0500
vn 0.9737 0.2276 -0.0145
vn -0.0000 -0.1262 0.9920
vn 0.5635 -0.0860 0.8216
vn 0.5387 -0.0826 0.8384
vn -0.0006 -0.1154 0.9933
vn 0.5233 -0.0816 0.8482
vn 0.5255 -0.0358 0.8500
vn 0.0004 0.9906 0.1371
vn -0.0001 0.9906 0.1371
vn 0.0007 -0.9906 -0.1371
vn 0.0000 -0.9906 -0.1371
vn -0.0002 -0.0304 0.9995
vn -0.0149 0.9947 0.1015
vn 0.0628 0.9931 0.0992
vn -0.0060 -0.9933 -0.1151
vn 0.9356 0.3498 -0.0469
vn -0.8540 -0.0655 0.5162
vn 0.0149 -0.9947 -0.1015
vn 0.5203 -0.1182 0.8458
vn 0.5157 -0.1035 0.8505
vn 0.0000 0.9511 0.3089
vn 0.1862 0.9350 0.3018
vn 0.0004 -0.1254 0.9921
vn -0.0182 -0.9843 0.1757
vn -0.9737 0.2276 -0.0145
vn -0.5635 -0.0860 0.8216
vn -0.5387 -0.0826 0.8384
vn 0.0006 -0.1154 0.9933
vn -0.5233 -0.0815 0.8482
vn -0.5255 -0.0358 0.8500
vn -0.0004 0.9906 0.1371
vn 0.0001 0.9906 0.1371
vn -0.0007 -0.9906 -0.1371
vn 0.0002 -0.0304 0.9995
vn 0.0149 0.9947 0.1015
vn -0.0628 0.9931 0.0992
vn 0.0060 -0.9933 -0.1151
vn -0.9356 0.3498 -0.0469
vn 0.8540 -0.0655 0.5162
vn -0.0149 -0.9947 -0.1015
vn -0.5203 -0.1182 0.8458
vn -0.5157 -0.1035 0.8505
vn -0.1862 0.9350 0.3018
vn -0.0004 -0.3079 0.9514
vn 0.5259 -0.1626 0.8348
vn 0.0004 -0.3079 0.9514
vn -0.5259 -0.1626 0.8348
usemtl Material
s off
f 15/1/1 1/2/1 12/3/1 14/4/1
f 16/5/2 9/6/2 8/7/2 17/8/2
f 18/9/3 2/10/3 1/2/3 15/1/3
f 21/11/4 4/12/4 3/13/4 20/14/4
f 22/15/5 28/16/5 37/17/5 35/18/5
f 23/19/6 5/20/6 4/12/6 21/11/6
f 14/4/7 12/3/7 11/21/7 27/22/7 24/23/7
f 25/24/8 6/25/8 5/20/8 23/19/8
f 26/26/6 7/27/6 6/25/6 25/24/6
f 17/8/9 8/7/9 7/27/9 26/26/9
f 20/14/10 3/13/10 2/10/10 18/9/10
f 12/3/11 1/2/11 2/10/11 3/13/11 4/12/11 5/20/11 6/25/11 7/27/11 8/7/11 50/28/11 38/29/11 39/30/11 13/31/11 11/21/11
f 24/23/12 27/22/12 31/32/12 28/16/12 22/15/12
f 28/16/13 31/32/13 27/22/13 11/21/13 13/31/13
f 39/30/14 37/17/14 28/16/14 13/31/14
f 29/33/15 41/34/15 35/18/15 37/17/15 30/35/15
f 32/36/16 30/35/16 37/17/16 39/30/16
f 33/37/17 10/38/17 38/29/17 34/39/17
f 41/34/18 29/33/18 45/40/18 47/41/18
f 29/33/19 30/35/19 42/42/19 45/40/19
f 19/43/20 40/44/20 46/45/20 44/46/20
f 33/37/21 19/43/21 44/46/21 43/47/21
f 19/43/22 33/37/22 34/39/22 36/48/22 40/44/22
f 49/49/23 32/36/23 52/50/23 54/51/23
f 32/36/24 49/49/24 42/42/24 30/35/24
f 10/38/25 33/37/25 43/47/25 48/52/25
f 50/28/26 8/7/26 9/6/26
f 52/50/27 51/53/27 53/54/27 54/51/27
f 10/38/28 48/52/28 53/54/28 51/53/28
f 48/52/29 49/49/29 54/51/29 53/54/29
f 10/38/30 51/53/30 52/50/30 32/36/30 39/30/30 38/29/30
f 34/39/31 9/6/31 36/48/31
f 16/5/31 36/48/31 9/6/31
f 38/29/32 50/28/32 34/39/32
f 50/28/32 9/6/32 34/39/32
f 15/1/1 14/4/1 67/55/1 56/56/1
f 16/5/2 17/8/2 63/57/2 64/58/2
f 18/9/3 15/1/3 56/56/3 57/59/3
f 21/11/4 20/14/4 58/60/4 59/61/4
f 22/15/33 35/18/33 78/62/33 71/63/33
f 23/19/6 21/11/6 59/61/6 60/64/6
f 14/4/34 24/23/34 70/65/34 66/66/34 67/55/34
f 25/24/8 23/19/8 60/64/8 61/67/8
f 26/26/6 25/24/6 61/67/6 62/68/6
f 17/8/9 26/26/9 62/68/9 63/57/9
f 20/14/10 18/9/10 57/59/10 58/60/10
f 67/55/35 66/66/35 68/69/35 80/70/35 79/71/35 87/72/35 63/57/35 62/68/35 61/67/35 60/64/35 59/61/35 58/60/35 57/59/35 56/56/35
f 24/23/12 22/15/12 71/63/12 74/73/12 70/65/12
f 71/63/36 68/69/36 66/66/36 70/65/36 74/73/36
f 80/70/37 68/69/37 71/63/37 78/62/37
f 72/74/38 73/75/38 78/62/38 35/18/38 41/34/38
f 75/76/39 80/70/39 78/62/39 73/75/39
f 76/77/40 77/78/40 79/71/40 65/79/40
f 41/34/41 47/41/41 84/80/41 72/74/41
f 72/74/42 84/80/42 81/81/42 73/75/42
f 69/82/43 83/83/43 46/45/43 40/44/43
f 76/77/21 82/84/21 83/83/21 69/82/21
f 69/82/44 40/44/44 36/48/44 77/78/44 76/77/44
f 86/85/45 91/86/45 89/87/45 75/76/45
f 75/76/46 73/75/46 81/81/46 86/85/46
f 65/79/47 85/88/47 82/84/47 76/77/47
f 87/72/48 64/58/48 63/57/48
f 89/87/49 91/86/49 90/89/49 88/90/49
f 65/79/50 88/90/50 90/89/50 85/88/50
f 85/88/51 90/89/51 91/86/51 86/85/51
f 65/79/52 79/71/52 80/70/52 75/76/52 89/87/52 88/90/52
f 77/78/31 36/48/31 64/58/31
f 16/5/31 64/58/31 36/48/31
f 79/71/53 77/78/53 87/72/53
f 87/72/53 77/78/53 64/58/53
usemtl Headlights
f 45/40/54 42/42/54 43/47/54 44/46/54 46/45/54 47/41/54
f 42/42/55 49/49/55 48/52/55 43/47/55
f 84/80/56 47/41/56 46/45/56 83/83/56 82/84/56 81/81/56
f 81/81/57 82/84/57 85/88/57 86/85/57
l 15 55
l 15 92
