# Blender v3.1.2 OBJ File: ''
# www.blender.org
mtllib cybertruck.mtl
o Cube_Cube.001
v -0.474852 0.144186 1.356984
v -0.474852 0.047549 1.356984
v -0.474852 0.144186 1.502563
v -0.474852 0.047549 1.502563
v -0.571489 0.144186 1.356984
v -0.571489 0.047549 1.356984
v -0.571489 0.144186 1.502563
v -0.571489 0.047549 1.502563
vt 0.375000 0.000000
vt 0.375000 0.250000
vt 0.625000 0.250000
vt 0.625000 0.000000
vt 0.375000 0.500000
vt 0.625000 0.500000
vt 0.375000 0.750000
vt 0.625000 0.750000
vt 0.375000 1.000000
vt 0.625000 1.000000
vt 0.125000 0.500000
vt 0.125000 0.750000
vt 0.875000 0.750000
vt 0.875000 0.500000
vn 1.0000 0.0000 0.0000
vn 0.0000 0.0000 1.0000
vn -1.0000 0.0000 0.0000
vn 0.0000 0.0000 -1.0000
vn 0.0000 1.0000 0.0000
vn 0.0000 -1.0000 0.0000
usemtl None
s off
f 1/1/1 3/2/1 4/3/1 2/4/1
f 3/2/2 7/5/2 8/6/2 4/3/2
f 7/5/3 5/7/3 6/8/3 8/6/3
f 5/7/4 1/9/4 2/10/4 6/8/4
f 3/11/5 1/12/5 5/7/5 7/5/5
f 8/6/6 6/8/6 2/13/6 4/14/6
o Cube.001_Cube.002
v 0.571490 0.144186 1.356984
v 0.571490 0.047549 1.356984
v 0.571490 0.144186 1.502563
v 0.571490 0.047549 1.502563
v 0.474852 0.144186 1.356984
v 0.474852 0.047549 1.356984
v 0.474852 0.144186 1.502563
v 0.474852 0.047549 1.502563
vt 0.375000 0.000000
vt 0.375000 0.250000
vt 0.625000 0.250000
vt 0.625000 0.000000
vt 0.375000 0.500000
vt 0.625000 0.500000
vt 0.375000 0.750000
vt 0.625000 0.750000
vt 0.375000 1.000000
vt 0.625000 1.000000
vt 0.125000 0.500000
vt 0.125000 0.750000
vt 0.875000 0.750000
vt 0.875000 0.500000
vn 1.0000 0.0000 0.0000
vn 0.0000 0.0000 1.0000
vn -1.0000 0.0000 0.0000
vn 0.0000 0.0000 -1.0000
vn 0.0000 1.0000 0.0000
vn 0.0000 -1.0000 0.0000
usemtl None
s off
f 9/15/7 11/16/7 12/17/7 10/18/7
f 11/16/8 15/19/8 16/20/8 12/17/8
f 15/19/9 13/21/9 14/22/9 16/20/9
f 13/21/10 9/23/10 10/24/10 14/22/10
f 11/25/11 9/26/11 13/21/11 15/19/11
f 16/20/12 14/22/12 10/27/12 12/28/12
o Plane_Plane.001
v 0.631224 -0.300983 0.830911
v 0.631223 -0.280884 -0.554378
v 0.631224 -0.146222 -1.277609
v 0.631224 -0.130184 -1.525169
v 0.446172 -0.129304 0.892693
v 0.446172 -0.129304 -1.259398
v 0.631223 0.239854 -1.578616
v 0.446172 0.052985 1.074983
v 0.405246 0.490769 0.304879
v 0.446172 0.052985 -1.077109
v 0.446172 0.052985 1.332779
v 0.627005 0.045596 1.531570
v 0.446172 0.052985 -0.819312
v 0.446172 -0.129305 1.515068
v 0.631224 -0.178483 1.525145
v 0.446172 -0.129305 -0.637023
v 0.005049 0.031788 1.659892
v 0.435719 -0.173471 1.632035
v 0.005049 0.021439 1.656540
v 0.418730 0.021459 1.656707
v 0.626867 0.021466 1.528282
v 0.418730 0.031768 1.660041
v 0.418730 0.050508 1.660535
v 0.418730 0.016554 1.656214
v 0.631224 0.050508 1.529464
v 0.631224 0.016554 1.525145
v 0.418730 0.022688 1.647825
v 0.418730 0.032997 1.651159
v 0.005052 0.033017 1.651010
v 0.005052 0.022668 1.647658
v 0.622432 0.046291 1.524092
v 0.622294 0.022161 1.520804
v 0.631223 0.123548 1.435629
v 0.630075 0.045831 1.529714
v 0.629937 0.021701 1.526426
v 0.625502 0.046526 1.522237
v 0.625363 0.022396 1.518949
v 0.631224 -0.148267 1.525150
v 0.631223 -0.265496 -0.637023
v 0.446172 -0.149613 -1.259398
v 0.631224 -0.149613 -1.259398
v 0.446172 -0.265496 -0.637023
v 0.631224 -0.129305 -0.637023
v 0.631223 0.052985 -0.819312
v 0.631223 -0.129305 -1.259398
v 0.631223 0.052985 -1.077109
v 0.446172 -0.188583 1.515068
v 0.446172 -0.214395 1.321621
v 0.631223 -0.180261 1.515068
v 0.446172 -0.290081 0.892693
v 0.631224 -0.290081 0.892693
v 0.631223 0.052985 1.074983
v 0.631223 0.052985 1.332779
v 0.631223 -0.129305 1.515068
v 0.631223 -0.129305 0.892693
v -0.631224 -0.300983 0.830910
v -0.631223 -0.280884 -0.554379
v -0.631224 -0.146222 -1.277609
v -0.631224 -0.130184 -1.525169
v -0.446172 -0.129304 0.892693
v -0.446172 -0.129304 -1.259398
v -0.631223 0.239854 -1.578616
v -0.446172 0.052985 1.074983
v -0.405246 0.490769 0.304879
v -0.446172 0.052985 -1.077109
v -0.446172 0.052985 1.332779
v -0.627006 0.045596 1.531570
v -0.446172 0.052985 -0.819313
v -0.446172 -0.129304 1.515068
v -0.631224 -0.178483 1.525145
v -0.000000 -0.300983 0.830911
v -0.000000 0.490769 0.304879
v -0.446172 -0.129305 -0.637023
v 0.000000 0.239854 -1.578617
v 0.000000 -0.280884 -0.554379
v -0.005049 0.031788 1.659892
v 0.000000 -0.146222 -1.277609
v -0.000000 -0.173471 1.632035
v 0.000000 -0.130184 -1.525169
v -0.435719 -0.173471 1.632035
v -0.005049 0.021439 1.656540
v -0.418730 0.021459 1.656707
v -0.626867 0.021466 1.528282
v -0.418730 0.031768 1.660041
v -0.418730 0.050508 1.660535
v -0.000000 0.016554 1.655893
v -0.000000 0.050508 1.660535
v -0.418730 0.016554 1.656214
v -0.631224 0.050508 1.529464
v -0.631224 0.016554 1.525145
v -0.000000 0.031788 1.659868
v -0.000000 0.021438 1.656561
v -0.418730 0.022688 1.647825
v -0.418730 0.032997 1.651159
v -0.005052 0.033017 1.651010
v -0.005052 0.022668 1.647658
v -0.000000 0.033017 1.650986
v -0.000000 0.022667 1.647679
v -0.622432 0.046291 1.524092
v -0.622294 0.022161 1.520804
v -0.631223 0.123548 1.435629
v -0.630075 0.045831 1.529714
v -0.629937 0.021701 1.526426
v -0.625502 0.046526 1.522237
v -0.625364 0.022396 1.518949
v -0.631224 -0.148267 1.525150
v -0.631223 -0.265496 -0.637023
v -0.446172 -0.149613 -1.259398
v -0.631224 -0.149613 -1.259398
v -0.446172 -0.265496 -0.637023
v -0.631224 -0.129305 -0.637023
v -0.631223 0.052985 -0.819313
v -0.631223 -0.129304 -1.259398
v -0.631223 0.052985 -1.077109
v -0.446172 -0.188583 1.515068
v -0.446172 -0.214395 1.321621
v -0.631223 -0.180261 1.515068
v -0.446172 -0.290081 0.892693
v -0.631224 -0.290081 0.892693
v -0.631223 0.052985 1.074983
v -0.631223 0.052985 1.332779
v -0.631223 -0.129305 1.515068
v -0.631223 -0.129305 0.892693
vt 0.000000 0.000000
vt 0.000000 0.000000
vt 0.000000 0.000000
vt 0.000000 0.000000
vt 0.000000 0.000000
vt 0.000000 0.000000
vt 0.000000 0.000000
vt 0.000000 0.000000
vt 0.000000 0.000000
vt 0.000000 0.000000
vt 0.000000 0.000000
vt 0.000000 0.000000
vt 0.000000 0.000000
vt 0.000000 0.000000
vt 0.000000 0.000000
vt 0.000000 0.000000
vt 0.000000 0.000000
vt 0.000000 0.000000
vt 0.000000 0.000000
vt 0.000000 0.000000
vt 0.000000 0.000000
vt 0.000000 0.000000
vt 0.000000 0.000000
vt 0.000000 0.000000
vt 0.000000 0.000000
vt 0.000000 0.000000
vt 0.000000 0.000000
vt 0.000000 0.000000
vt 0.000000 0.000000
vt 0.000000 0.000000
vt 0.000000 0.000000
vt 0.000000 0.000000
vt 0.000000 0.000000
vt 0.000000 0.000000
vt 0.000000 0.000000
vt 0.000000 0.000000
vt 0.000000 0.000000
vt 0.000000 0.000000
vt 0.000000 0.000000
vt 0.000000 0.000000
vt 0.000000 0.000000
vt 0.000000 0.000000
vt 0.000000 0.000000
vt 0.000000 0.000000
vt 0.000000 0.000000
vt 0.000000 0.000000
vt 0.000000 0.000000
vt 0.000000 0.000000
vt 0.000000 0.000000
vt 0.000000 0.000000
vt 1.000000 0.541081
vt 1.000000 1.000000
vt 1.000000 1.000000
vt 1.000000 0.518557
vt 0.750000 1.000000
vt 0.875000 1.000000
vt 0.875000 0.541081
vt 0.750000 0.785265
vt 0.625000 0.500000
vt 0.625000 0.500000
vt 0.750000 0.500000
vt 0.750000 0.500000
vt 0.500000 0.518557
vt 0.500000 1.000000
vt 0.500000 1.000000
vt 0.500000 0.518557
vt 0.330052 0.456842
vt 0.406337 0.425243
vt 0.419706 0.419706
vt 0.490000 0.250000
vt 0.490000 0.250000
vt 0.419706 0.419706
vt 1.000000 1.000000
vt 1.000000 1.000000
vt 1.000000 0.518557
vt 1.000000 0.565301
vt 0.625000 0.500000
vt 0.625000 0.500000
vt 0.750000 0.500000
vt 0.750000 0.500000
vt 0.500000 0.520466
vt 0.500000 1.000000
vt 0.625000 1.000000
vt 0.625000 0.555537
vt 0.313867 0.463545
vt 0.419706 0.419706
vt 0.490000 0.250000
vt 0.490000 0.250000
vt 0.419706 0.419706
vt 0.380683 0.435870
vt 0.363691 0.442908
vt 0.000000 0.000000
vt 0.000000 0.000000
vt 0.000000 0.000000
vt 0.000000 0.000000
vt 0.000000 0.000000
vt 0.000000 0.000000
vt 0.000000 0.000000
vt 0.000000 0.000000
vt 0.000000 0.000000
vt 0.000000 0.000000
vt 0.000000 0.000000
vt 0.000000 0.000000
vt 0.000000 0.000000
vt 0.000000 0.000000
vt 0.000000 0.000000
vt 0.000000 0.000000
vt 0.000000 0.000000
vt 0.000000 0.000000
vt 0.000000 0.000000
vt 0.000000 0.000000
vt 0.000000 0.000000
vt 0.000000 0.000000
vt 0.000000 0.000000
vt 0.000000 0.000000
vt 0.000000 0.000000
vt 0.000000 0.000000
vt 0.000000 0.000000
vt 0.000000 0.000000
vt 0.000000 0.000000
vt 0.000000 0.000000
vt 0.000000 0.000000
vt 0.000000 0.000000
vt 0.000000 0.000000
vt 0.000000 0.000000
vt 0.000000 0.000000
vt 0.000000 0.000000
vt 0.000000 0.000000
vt 0.000000 0.000000
vt 0.000000 0.000000
vt 1.000000 0.541081
vt 1.000000 0.518557
vt 1.000000 1.000000
vt 1.000000 1.000000
vt 0.750000 1.000000
vt 0.750000 0.785265
vt 0.875000 0.541081
vt 0.875000 1.000000
vt 0.625000 0.500000
vt 0.750000 0.500000
vt 0.750000 0.500000
vt 0.625000 0.500000
vt 0.500000 0.518557
vt 0.500000 0.518557
vt 0.500000 1.000000
vt 0.500000 1.000000
vt 0.330052 0.456842
vt 0.419706 0.419706
vt 0.490000 0.250000
vt 0.490000 0.250000
vt 0.419706 0.419706
vt 0.406337 0.425243
vt 1.000000 1.000000
vt 1.000000 0.565301
vt 1.000000 0.518557
vt 1.000000 1.000000
vt 0.625000 0.500000
vt 0.750000 0.500000
vt 0.750000 0.500000
vt 0.625000 0.500000
vt 0.500000 0.520466
vt 0.625000 0.555537
vt 0.625000 1.000000
vt 0.500000 1.000000
vt 0.313867 0.463545
vt 0.363691 0.442908
vt 0.380683 0.435870
vt 0.419706 0.419706
vt 0.490000 0.250000
vt 0.490000 0.250000
vt 0.419706 0.419706
vt 0.000000 0.000000
vt 0.000000 0.000000
vn 0.0000 0.9912 -0.1321
vn -0.0000 -0.9999 -0.0145
vn -0.0004 -0.1254 0.9921
vn -0.0000 -0.9979 -0.0646
vn 0.0000 -0.1430 -0.9897
vn 0.0000 -0.9831 -0.1830
vn 0.5032 -0.0320 0.8635
vn -0.0006 -0.1154 0.9933
vn 0.5233 -0.0814 0.8483
vn 0.5255 -0.0358 0.8500
vn 0.0004 0.9906 0.1371
vn -0.0001 0.9906 0.1371
vn 0.0007 -0.9906 -0.1371
vn 0.0000 -0.9906 -0.1371
vn -0.0002 -0.0304 0.9995
vn -0.0149 0.9947 0.1015
vn 0.0628 0.9931 0.0992
vn -0.0060 -0.9933 -0.1151
vn 0.8197 0.5724 0.0221
vn -0.8540 -0.0655 0.5162
vn 0.0149 -0.9947 -0.1015
vn 0.5203 -0.1182 0.8458
vn 0.5154 -0.1034 0.8507
vn 0.0000 0.9511 0.3089
vn 0.3543 0.7379 0.5744
vn -0.0000 -0.9876 0.1572
vn -0.0000 -0.9848 0.1738
vn -0.0000 0.0000 1.0000
vn -0.0000 -0.7071 0.7071
vn -0.0000 -1.0000 -0.0000
vn -0.0000 0.0000 -1.0000
vn 1.0000 -0.0000 0.0000
vn -0.0000 -0.7071 -0.7071
vn 0.0469 -0.9901 0.1321
vn 0.0442 -0.9838 0.1736
vn 0.0004 -0.1254 0.9921
vn -0.5032 -0.0320 0.8635
vn 0.0006 -0.1154 0.9933
vn -0.5233 -0.0813 0.8483
vn -0.5255 -0.0358 0.8500
vn -0.0004 0.9906 0.1371
vn 0.0001 0.9906 0.1371
vn -0.0007 -0.9906 -0.1371
vn 0.0002 -0.0304 0.9995
vn 0.0149 0.9947 0.1015
vn -0.0628 0.9931 0.0992
vn 0.0060 -0.9933 -0.1151
vn -0.8197 0.5724 0.0221
vn 0.8540 -0.0655 0.5162
vn -0.0149 -0.9947 -0.1015
vn -0.5203 -0.1182 0.8458
vn -0.5153 -0.1034 0.8507
vn -0.3543 0.7379 0.5744
vn -1.0000 0.0000 -0.0000
vn -0.0469 -0.9901 0.1321
vn -0.0442 -0.9838 0.1736
vn -0.0004 -0.3079 0.9514
vn 0.5259 -0.1626 0.8348
vn 0.0004 -0.3079 0.9514
vn -0.5259 -0.1626 0.8348
usemtl Material.002
s off
f 88/29/13 25/30/13 23/31/13 90/32/13
f 91/33/14 18/34/14 17/35/14 87/36/14
f 94/37/15 34/38/15 40/39/15 102/40/15
f 93/41/16 95/42/16 20/43/16 19/44/16
f 90/32/17 23/31/17 20/43/17 95/42/17
f 55/45/18 18/34/18 91/33/18 93/41/18 19/44/18 57/46/18 56/47/18 58/48/18
f 54/49/19 42/50/19 40/39/19 34/38/19 31/51/19
f 40/39/20 36/52/20 35/53/20 108/54/20 102/40/20
f 37/55/21 36/52/21 40/39/21 42/50/21
f 38/56/22 28/57/22 41/58/22 39/59/22
f 108/54/23 35/53/23 46/60/23 114/61/23
f 35/53/24 36/52/24 43/62/24 46/60/24
f 33/63/25 107/64/25 113/65/25 45/66/25
f 38/56/26 33/63/26 45/66/26 44/67/26
f 33/63/27 38/56/27 39/59/27 103/68/27 107/64/27
f 48/69/28 37/55/28 51/70/28 53/71/28
f 37/55/29 48/69/29 43/62/29 36/52/29
f 28/57/30 38/56/30 44/67/30 47/72/30
f 49/73/31 23/31/31 25/30/31
f 51/70/32 50/74/32 52/75/32 53/71/32
f 28/57/33 47/72/33 52/75/33 50/74/33
f 47/72/34 48/69/34 53/71/34 52/75/34
f 51/70/35 37/55/35 42/50/35 41/58/35 28/57/35 50/74/35
f 25/30/36 103/68/36 39/59/36 49/73/36
f 88/29/36 103/68/36 25/30/36
f 41/58/37 49/73/37 39/59/37
f 34/38/38 94/37/38 87/36/38
f 64/76/39 87/36/39 17/35/39 67/77/39 66/78/39
f 61/79/40 22/80/40 56/81/40 57/82/40
f 26/83/41 22/84/41 61/85/41 62/86/41
f 60/87/42 29/88/42 26/89/42 62/90/42
f 55/91/43 58/92/43 32/93/43 59/94/43
f 58/95/44 56/96/44 22/97/44 26/98/44 29/99/44 32/100/44
f 21/101/40 66/102/40 67/103/40 71/104/40
f 69/105/42 27/106/42 24/107/42 68/108/42
f 70/109/45 30/110/45 27/111/45 69/112/45
f 66/113/44 21/114/44 24/115/44 27/116/44 30/117/44 63/118/44 64/119/44
f 17/35/44 18/34/44 55/91/44 59/94/44 71/104/44 67/77/44
f 21/101/41 71/104/41 68/108/41 24/107/41
f 63/118/46 87/36/46 64/76/46
f 34/38/46 87/36/46 63/118/46
f 65/120/47 31/51/47 63/121/47
f 34/38/46 63/118/46 31/51/46
f 30/110/43 70/109/43 65/120/43 63/121/43
f 29/88/45 60/87/45 59/94/45 32/93/45
f 71/104/44 59/94/44 60/87/44 62/86/44 61/79/44 57/46/44 19/44/44 20/43/44 23/31/44 49/73/44 41/58/44 42/50/44 54/49/44 31/51/44 65/120/44 70/109/44 69/105/44 68/108/44
f 88/29/13 90/32/13 78/122/13 80/123/13
f 91/33/14 87/36/14 72/124/14 73/125/14
f 94/37/48 102/40/48 104/126/48 96/127/48
f 93/41/16 74/128/16 75/129/16 95/42/16
f 90/32/17 95/42/17 75/129/17 78/122/17
f 123/130/18 126/131/18 124/132/18 125/133/18 74/128/18 93/41/18 91/33/18 73/125/18
f 122/134/49 86/135/49 96/127/49 104/126/49 106/136/49
f 104/126/50 102/40/50 108/54/50 97/137/50 98/138/50
f 99/139/51 106/136/51 104/126/51 98/138/51
f 100/140/52 101/141/52 105/142/52 83/143/52
f 108/54/53 114/61/53 112/144/53 97/137/53
f 97/137/54 112/144/54 109/145/54 98/138/54
f 92/146/55 111/147/55 113/65/55 107/64/55
f 100/140/26 110/148/26 111/147/26 92/146/26
f 92/146/56 107/64/56 103/68/56 101/141/56 100/140/56
f 116/149/57 121/150/57 119/151/57 99/139/57
f 99/139/58 98/138/58 109/145/58 116/149/58
f 83/143/59 115/152/59 110/148/59 100/140/59
f 117/153/60 80/123/60 78/122/60
f 119/151/61 121/150/61 120/154/61 118/155/61
f 83/143/62 118/155/62 120/154/62 115/152/62
f 115/152/63 120/154/63 121/150/63 116/149/63
f 119/151/64 118/155/64 83/143/64 105/142/64 106/136/64 99/139/64
f 80/123/36 117/153/36 101/141/36 103/68/36
f 88/29/36 80/123/36 103/68/36
f 105/142/65 101/141/65 117/153/65
f 96/127/38 87/36/38 94/37/38
f 132/156/39 134/157/39 135/158/39 72/124/39 87/36/39
f 129/159/40 125/160/40 124/161/40 77/162/40
f 81/163/41 130/164/41 129/165/41 77/166/41
f 128/167/42 130/168/42 81/169/42 84/170/42
f 123/171/43 127/172/43 89/173/43 126/174/43
f 126/175/66 89/176/66 84/177/66 81/178/66 77/179/66 124/180/66
f 76/181/40 139/182/40 135/183/40 134/184/40
f 137/185/42 136/186/42 79/187/42 82/188/42
f 138/189/45 137/190/45 82/191/45 85/192/45
f 134/193/66 132/194/66 131/195/66 85/196/66 82/197/66 79/198/66 76/199/66
f 72/124/66 135/158/66 139/182/66 127/172/66 123/171/66 73/125/66
f 76/181/41 79/187/41 136/186/41 139/182/41
f 131/195/67 132/156/67 87/36/67
f 96/127/67 131/195/67 87/36/67
f 133/200/68 131/201/68 86/135/68
f 96/127/67 86/135/67 131/195/67
f 85/192/43 131/201/43 133/200/43 138/189/43
f 84/170/45 89/173/45 127/172/45 128/167/45
f 139/182/66 136/186/66 137/185/66 138/189/66 133/200/66 86/135/66 122/134/66 106/136/66 105/142/66 117/153/66 78/122/66 75/129/66 74/128/66 125/133/66 129/159/66 130/164/66 128/167/66 127/172/66
usemtl Headlights.001
f 113/65/69 114/61/69 46/60/69 43/62/69 44/67/69 45/66/69
f 43/62/70 48/69/70 47/72/70 44/67/70
f 113/65/71 111/147/71 110/148/71 109/145/71 112/144/71 114/61/71
f 109/145/72 110/148/72 115/152/72 116/149/72
